<?xml version="1.0" standalone="no"?><!DOCTYPE svg PUBLIC "-//W3C//DTD SVG 1.1//EN" "http://www.w3.org/Graphics/SVG/1.1/DTD/svg11.dtd"><svg t="1711201170783" class="icon" viewBox="0 0 1024 1024" version="1.1" xmlns="http://www.w3.org/2000/svg" p-id="5796" xmlns:xlink="http://www.w3.org/1999/xlink" width="200" height="200"><path d="M885.2 446.3l-0.2-0.8-112.2-285.1c-5-16.1-19.9-27.2-36.8-27.2H281.2c-17 0-32.1 11.3-36.9 27.6L139.4 443l-0.3 0.7-0.2 0.8c-1.3 4.9-1.7 9.9-1 14.8-0.1 1.6-0.2 3.2-0.2 4.8V830a60.9 60.9 0 0 0 60.8 60.8h627.2c33.5 0 60.8-27.3 60.9-60.8V464.1c0-1.3 0-2.6-0.1-3.7 0.4-4.9 0-9.6-1.3-14.1z m-295.8-43l-0.3 15.7c-0.8 44.9-31.8 75.1-77.1 75.1-22.1 0-41.1-7.1-54.8-20.6S436 441.2 435.6 419l-0.3-15.7H229.5L309 210h399.2l81.7 193.3H589.4z m-375 76.8h157.3c24.3 57.1 76 90.8 140.4 90.8 33.7 0 65-9.4 90.3-27.2 22.2-15.6 39.5-37.4 50.7-63.6h156.5V814H214.4V480.1z" p-id="5797"></path></svg>