<?xml version="1.0" standalone="no"?><!DOCTYPE svg PUBLIC "-//W3C//DTD SVG 1.1//EN" "http://www.w3.org/Graphics/SVG/1.1/DTD/svg11.dtd"><svg t="1711442669001" class="icon" viewBox="0 0 1024 1024" version="1.1" xmlns="http://www.w3.org/2000/svg" p-id="2426" xmlns:xlink="http://www.w3.org/1999/xlink" width="200" height="200"><path d="M149.461333 271.658667L322.432 386.986667l172.373333-241.28a41.173333 41.173333 0 0 1 66.986667 0l172.373333 241.28 172.970667-115.285334a41.173333 41.173333 0 0 1 63.701333 39.125334l-67.669333 575.146666a41.173333 41.173333 0 0 1-40.874667 36.309334H194.304a41.173333 41.173333 0 0 1-40.874667-36.352L85.76 310.741333a41.173333 41.173333 0 0 1 63.701333-39.082666z m378.88 403.541333a82.346667 82.346667 0 1 0 0-164.693333 82.346667 82.346667 0 0 0 0 164.693333z" fill="#111111" p-id="2427"></path></svg>