<?xml version="1.0" standalone="no"?><!DOCTYPE svg PUBLIC "-//W3C//DTD SVG 1.1//EN" "http://www.w3.org/Graphics/SVG/1.1/DTD/svg11.dtd"><svg t="1711442686298" class="icon" viewBox="0 0 1024 1024" version="1.1" xmlns="http://www.w3.org/2000/svg" p-id="2881" xmlns:xlink="http://www.w3.org/1999/xlink" width="200" height="200"><path d="M824.11102 0c58.806857 0 106.496 47.438367 106.496 105.931755v659.121633a106.119837 106.119837 0 0 1-92.682449 105.033143L992.653061 1024h-100.414694l-153.829877-153.014857h-452.858776L131.740735 1024H31.346939l155.982367-155.167347a106.119837 106.119837 0 0 1-84.992-103.779265V105.952653C102.337306 47.417469 150.047347 0 208.833306 0h615.277714z m35.505633 576.741878H173.327673v188.31151c0 19.497796 15.882449 35.317551 35.505633 35.317551h615.277714c19.602286 0 35.505633-15.819755 35.505633-35.317551v-188.31151z m-556.115592 70.614204c16.906449 0 32.538122 8.986122 40.980898 23.531102a46.874122 46.874122 0 0 1 0 47.083102 47.375673 47.375673 0 0 1-40.980898 23.552 47.20849 47.20849 0 0 1-47.333877-47.083102 47.20849 47.20849 0 0 1 47.333877-47.083102z m425.963102 0c16.906449 0 32.538122 8.986122 40.980898 23.531102a46.874122 46.874122 0 0 1 0 47.083102 47.375673 47.375673 0 0 1-40.980898 23.552 47.20849 47.20849 0 0 1-47.333877-47.083102 47.20849 47.20849 0 0 1 47.333877-47.083102z m-248.476734-400.195919H173.306776v258.946613h307.638857v-258.925715z m378.629224 0H551.977796v258.946613h307.617959v-258.925715zM824.11102 70.635102H208.833306c-19.602286 0-35.505633 15.819755-35.505633 35.317551v70.635102h686.28898v-70.635102c0-19.497796-15.882449-35.317551-35.505633-35.317551z" fill="#111111" p-id="2882"></path></svg>