<?xml version="1.0" standalone="no"?><!DOCTYPE svg PUBLIC "-//W3C//DTD SVG 1.1//EN" "http://www.w3.org/Graphics/SVG/1.1/DTD/svg11.dtd"><svg t="1711442657705" class="icon" viewBox="0 0 1024 1024" version="1.1" xmlns="http://www.w3.org/2000/svg" p-id="2118" xmlns:xlink="http://www.w3.org/1999/xlink" width="200" height="200"><path d="M512 74.666667c241.536 0 437.333333 195.797333 437.333333 437.333333S753.536 949.333333 512 949.333333a436.096 436.096 0 0 1-242.986667-73.685333 32 32 0 1 1 35.584-53.162667A372.096 372.096 0 0 0 512 885.333333c206.186667 0 373.333333-167.146667 373.333333-373.333333S718.186667 138.666667 512 138.666667 138.666667 305.813333 138.666667 512a372.096 372.096 0 0 0 62.848 207.402667 32 32 0 0 1-53.162667 35.605333A436.096 436.096 0 0 1 74.666667 512C74.666667 270.442667 270.464 74.645333 512 74.645333z" fill="#111111" p-id="2119"></path><path d="M360.32 319.829333a32 32 0 0 1 45.184-2.197333l95.936 87.104 95.68-87.061333a32 32 0 0 1 42.88-0.192l2.346667 2.304a32 32 0 0 1-2.133334 45.226666l-117.184 106.666667a32 32 0 0 1-43.050666 0l-117.482667-106.666667a32 32 0 0 1-2.197333-45.184z" fill="#111111" p-id="2120"></path><path d="M640 448a32 32 0 0 1 0 64H341.333333a32 32 0 0 1 0-64h298.666667zM640 554.666667a32 32 0 0 1 0 64H341.333333a32 32 0 0 1 0-64h298.666667z" fill="#111111" p-id="2121"></path><path d="M496.426667 416a32 32 0 0 1 32.917333 31.082667l7.957333 277.333333a32 32 0 0 1-63.978666 1.834667l-7.957334-277.333334a32 32 0 0 1 31.061334-32.896z" fill="#111111" p-id="2122"></path></svg>